<?xml version="1.0" encoding="UTF-8"?>
<svg xmlns="http://www.w3.org/2000/svg" xmlns:xlink="http://www.w3.org/1999/xlink" width="2000px" height="2000px" viewBox="0 0 2000 2000" version="1.1">
<g id="surface1">
<path style=" stroke:none;fill-rule:nonzero;fill:rgb(0%,0%,0%);fill-opacity:1;" d="M 878.125 687.8125 C 815.3125 710 760.9375 729.6875 757.1875 731.25 C 750 734.0625 750 735 750 791.5625 C 750 857.8125 754.6875 882.1875 774.0625 919.6875 C 788.75 948.4375 824.6875 985 852.8125 999.6875 C 888.4375 1018.4375 908.125 1021.875 986.5625 1021.875 C 1063.4375 1021.875 1080 1024.0625 1101.25 1037.5 C 1116.5625 1047.1875 1134.375 1071.5625 1134.375 1082.8125 C 1134.375 1087.5 1115.3125 1106.5625 1069.0625 1147.8125 C 1033.125 1180 1001.875 1206.25 1000 1206.25 C 997.8125 1206.25 965.3125 1178.75 927.8125 1145 L 859.375 1084.0625 L 859.375 1067.1875 C 859.375 1050.9375 859.0625 1050.3125 848.4375 1046.875 C 831.5625 1041.25 793.125 1015 773.75 995.625 C 764.0625 985.9375 754.6875 978.75 753.125 979.6875 C 751.25 980.9375 750 1011.5625 750 1057.5 L 750 1133.4375 L 871.875 1242.5 C 939.0625 1302.5 996.5625 1351.5625 999.6875 1351.5625 C 1005.625 1351.5625 1015.625 1342.8125 1168.4375 1206.5625 L 1250.625 1132.8125 L 1249.0625 1101.5625 C 1244.6875 1016.5625 1191.875 948.125 1110.9375 921.5625 C 1091.25 915.3125 1080.9375 914.375 1004.6875 912.8125 C 925.9375 910.9375 919.375 910.625 907.8125 904.0625 C 887.8125 893.75 869.6875 871.875 864.0625 851.875 C 854.375 818.75 851.5625 821.25 930.625 788.125 L 1000 758.75 L 1069.6875 788.125 L 1139.0625 817.8125 L 1140 852.1875 L 1140.9375 886.875 L 1150.625 890.9375 C 1169.0625 898.4375 1204.6875 924.375 1223.4375 943.4375 C 1233.75 953.75 1243.75 962.5 1245.9375 962.5 C 1249.375 962.5 1250 940 1249.375 848.125 L 1248.4375 733.75 L 1237.5 729.375 C 1224.6875 724.6875 1122.5 688.125 1053.4375 663.75 C 1026.875 654.375 1002.5 646.875 998.75 646.875 C 995 647.1875 940.9375 665.3125 878.125 687.8125 Z M 878.125 687.8125 "/>
</g>
</svg>
