<?xml version="1.0" standalone="no"?>
<!DOCTYPE svg PUBLIC "-//W3C//DTD SVG 20010904//EN"
 "http://www.w3.org/TR/2001/REC-SVG-20010904/DTD/svg10.dtd">
<svg version="1.0" xmlns="http://www.w3.org/2000/svg"
 width="640.000000pt" height="640.000000pt" viewBox="0 0 640.000000 640.000000"
 preserveAspectRatio="xMidYMid meet">

<g transform="translate(0.000000,640.000000) scale(0.100000,-0.100000)"
fill="#000000" stroke="none">
<path d="M2810 4199 c-201 -71 -375 -134 -387 -139 -23 -9 -23 -12 -23 -193 0
-212 15 -290 77 -410 47 -92 162 -209 252 -256 114 -60 177 -71 428 -71 246 0
299 -7 367 -50 49 -31 106 -109 106 -145 0 -15 -61 -76 -209 -208 -115 -103
-215 -187 -221 -187 -7 0 -111 88 -231 196 l-219 195 0 54 c0 52 -1 54 -35 65
-54 18 -177 102 -239 164 -31 31 -61 54 -66 51 -6 -4 -10 -102 -10 -249 l0
-243 390 -349 c215 -192 399 -349 409 -349 19 0 51 28 540 464 l263 236 -5
100 c-14 272 -183 491 -442 576 -63 20 -96 23 -340 28 -252 6 -273 7 -310 28
-64 33 -122 103 -140 167 -31 106 -40 98 213 204 l222 94 223 -94 222 -95 3
-110 3 -111 31 -13 c59 -24 173 -107 233 -168 33 -33 65 -61 72 -61 11 0 13
72 11 366 l-3 366 -35 14 c-41 15 -368 132 -589 210 -85 30 -163 54 -175 54
-12 -1 -185 -59 -386 -131z"/>
</g>
</svg>
